<svg xmlns="http://www.w3.org/2000/svg" viewBox="0 0 512 512">
  <rect width="512" height="512" rx="96" fill="#1a1a2e"/>
  <rect x="80" y="72" width="352" height="368" rx="12" fill="#f5f0e8" stroke="#2d2d3f" stroke-width="6"/>
  <rect x="108" y="100" width="296" height="8" rx="4" fill="#1a1a2e"/>
  <rect x="108" y="116" width="296" height="3" rx="1.5" fill="#1a1a2e"/>
  <text x="256" y="172" text-anchor="middle" font-family="serif" font-weight="bold" font-size="52" fill="#1a1a2e">DC</text>
  <rect x="108" y="190" width="296" height="3" rx="1.5" fill="#1a1a2e"/>
  <rect x="108" y="210" width="138" height="6" rx="3" fill="#444"/>
  <rect x="108" y="224" width="138" height="4" rx="2" fill="#888"/>
  <rect x="108" y="234" width="138" height="4" rx="2" fill="#888"/>
  <rect x="108" y="244" width="138" height="4" rx="2" fill="#888"/>
  <rect x="108" y="254" width="100" height="4" rx="2" fill="#888"/>
  <rect x="266" y="210" width="138" height="6" rx="3" fill="#444"/>
  <rect x="266" y="224" width="138" height="4" rx="2" fill="#888"/>
  <rect x="266" y="234" width="138" height="4" rx="2" fill="#888"/>
  <rect x="266" y="244" width="138" height="4" rx="2" fill="#888"/>
  <rect x="266" y="254" width="100" height="4" rx="2" fill="#888"/>
  <rect x="108" y="278" width="296" height="2" rx="1" fill="#ccc"/>
  <rect x="108" y="294" width="296" height="6" rx="3" fill="#444"/>
  <rect x="108" y="308" width="296" height="4" rx="2" fill="#888"/>
  <rect x="108" y="318" width="296" height="4" rx="2" fill="#888"/>
  <rect x="108" y="328" width="296" height="4" rx="2" fill="#888"/>
  <rect x="108" y="338" width="200" height="4" rx="2" fill="#888"/>
  <rect x="108" y="362" width="296" height="60" rx="6" fill="#e8e3d8" stroke="#ccc" stroke-width="1"/>
  <rect x="120" y="374" width="80" height="4" rx="2" fill="#666"/>
  <rect x="120" y="384" width="120" height="3" rx="1.5" fill="#999"/>
  <rect x="120" y="392" width="110" height="3" rx="1.5" fill="#999"/>
  <rect x="120" y="400" width="90" height="3" rx="1.5" fill="#999"/>
</svg>
